<?xml version="1.0" standalone="no"?>
<!DOCTYPE svg PUBLIC "-//W3C//DTD SVG 20010904//EN"
 "http://www.w3.org/TR/2001/REC-SVG-20010904/DTD/svg10.dtd">
<svg version="1.0" xmlns="http://www.w3.org/2000/svg"
 width="500.000000pt" height="500.000000pt" viewBox="0 0 500.000000 500.000000"
 preserveAspectRatio="xMidYMid meet">

<g transform="translate(0.000000,500.000000) scale(0.100000,-0.100000)"
fill="#000000" stroke="none">
<path d="M2742 4248 c-17 -17 -15 -49 2 -42 18 7 29 35 18 46 -4 4 -13 3 -20
-4z"/>
<path d="M2942 4253 c-6 -2 -9 -10 -6 -15 4 -7 2 -8 -5 -4 -7 5 -45 -23 -97
-70 l-85 -78 28 -11 c37 -16 50 -9 122 75 41 48 58 76 54 87 -5 12 -3 14 7 8
9 -5 11 -4 6 3 -4 7 -8 12 -9 11 -1 0 -8 -3 -15 -6z"/>
<path d="M3118 4200 c-7 -11 -18 -20 -25 -20 -6 0 -13 -3 -15 -7 -1 -5 -34
-35 -73 -67 -38 -33 -76 -65 -84 -72 -12 -11 -8 -16 29 -33 43 -19 44 -19 70
-1 15 11 53 49 84 85 51 58 57 67 45 83 -13 15 -12 16 4 3 14 -11 20 -12 30
-2 9 10 9 12 -3 9 -10 -2 -14 4 -12 17 2 16 1 17 -7 5 -9 -13 -11 -13 -11 3 0
23 -17 22 -32 -3z"/>
<path d="M2662 4168 c-17 -17 -15 -28 7 -28 19 0 35 23 24 34 -9 9 -18 7 -31
-6z"/>
<path d="M3285 4132 c-49 -47 -148 -133 -194 -169 l-23 -19 37 -33 38 -33 107
109 c93 95 153 169 122 149 -5 -3 -13 5 -16 19 -4 14 -10 25 -14 25 -4 0 -29
-22 -57 -48z m65 19 c0 -5 3 -18 6 -28 4 -14 4 -15 -4 -4 -5 7 -14 11 -20 7
-8 -5 -9 10 -3 32 2 7 21 1 21 -7z"/>
<path d="M3379 4163 c-13 -16 -12 -17 4 -4 16 13 21 21 13 21 -2 0 -10 -8 -17
-17z"/>
<path d="M2305 4071 c-144 -24 -350 -90 -386 -124 -10 -10 -19 -15 -19 -12 0
3 -27 -8 -60 -25 -38 -19 -58 -35 -54 -42 4 -7 3 -8 -5 -4 -15 9 -157 -102
-231 -180 -261 -276 -383 -690 -297 -1008 51 -188 139 -337 279 -472 310 -302
799 -385 1233 -211 237 95 427 253 585 487 66 98 98 173 136 320 100 389 -68
827 -411 1072 -117 83 -263 147 -430 188 -63 15 -273 22 -340 11z m278 -45
c91 -17 99 -30 12 -19 -231 27 -455 -8 -650 -104 -165 -81 -320 -208 -426
-351 -80 -106 -170 -279 -189 -364 -7 -32 -17 -58 -22 -58 -11 0 0 66 18 104
8 16 14 36 14 45 0 28 97 218 145 286 73 102 214 234 320 300 17 10 34 24 38
32 5 7 12 11 16 8 5 -2 32 7 60 20 92 45 199 77 346 105 66 12 245 10 318 -4z
m144 -42 c-3 -3 -12 -4 -19 -1 -8 3 -5 6 6 6 11 1 17 -2 13 -5z m-112 -94
c252 -71 438 -249 516 -493 10 -33 28 -75 40 -93 18 -29 19 -43 13 -105 -5
-54 -4 -73 6 -79 11 -7 11 -25 3 -92 -6 -45 -14 -96 -18 -113 -13 -58 -96
-215 -134 -255 -22 -23 -42 -48 -45 -56 -3 -9 -11 -12 -17 -8 -7 4 -9 3 -6 -3
8 -13 -85 -108 -97 -100 -2 1 -13 -10 -24 -24 -23 -28 -135 -92 -145 -82 -4 3
-16 -2 -28 -13 -12 -10 -24 -18 -28 -17 -13 4 -51 -9 -46 -17 8 -12 -24 -21
-53 -14 -22 5 -24 3 -12 -6 12 -10 12 -11 -5 -4 -24 8 -22 8 -155 -5 -211 -22
-379 24 -542 146 -57 43 -75 53 -62 31 4 -7 3 -8 -5 -4 -6 4 -9 11 -6 16 3 4
-3 14 -12 21 -12 10 -15 10 -9 1 4 -6 -9 -3 -28 9 -43 25 -92 90 -139 184 -57
113 -71 180 -70 340 0 123 3 149 25 215 14 41 29 84 33 95 17 53 -30 -46 -61
-128 -29 -73 -37 -111 -41 -184 -17 -295 141 -605 382 -750 99 -59 269 -115
370 -121 104 -6 315 14 351 33 16 8 49 17 73 21 57 9 212 89 315 162 126 91
232 232 289 387 55 151 73 274 54 370 -13 70 -28 115 -36 115 -4 0 -15 26 -25
58 -59 185 -197 367 -360 473 -33 22 -56 39 -51 39 5 0 0 7 -11 15 -16 13 -13
13 20 -1 119 -48 293 -193 375 -314 82 -121 129 -277 138 -455 5 -97 2 -123
-21 -215 -47 -189 -155 -369 -307 -514 -129 -123 -272 -202 -449 -249 -110
-29 -360 -35 -478 -12 -244 48 -445 180 -579 380 -66 97 -88 147 -124 280 -9
32 -14 101 -14 190 1 117 4 152 24 215 25 82 105 249 152 317 123 178 310 321
489 373 172 51 237 60 390 56 80 -3 163 -10 185 -16z m-1306 -787 c-1 -10 -5
-31 -9 -48 -7 -25 -8 -23 -6 17 0 27 4 48 9 48 4 0 6 -8 6 -17z m-22 -155 c-2
-13 -4 -5 -4 17 -1 22 1 32 4 23 2 -10 2 -28 0 -40z m2092 -273 c-26 -94 -116
-238 -214 -343 -160 -171 -367 -286 -607 -338 -165 -35 -363 -40 -351 -8 4 10
26 14 80 14 214 0 464 73 633 185 91 60 271 237 329 322 23 35 60 99 83 144
41 83 66 95 47 24z"/>
<path d="M2275 3856 c-5 -2 -44 -12 -85 -21 -73 -17 -200 -68 -200 -80 0 -3 5
-3 10 0 6 3 10 0 10 -7 -1 -7 -27 -29 -58 -48 -31 -19 -100 -78 -153 -132 -80
-80 -103 -111 -140 -187 -24 -50 -49 -90 -56 -91 -6 0 -17 -17 -24 -37 -16
-45 -14 -261 2 -343 38 -189 204 -393 389 -478 121 -56 177 -67 335 -67 146 1
153 2 253 37 272 95 475 298 548 548 13 47 18 96 18 180 0 141 -24 234 -92
363 -85 163 -216 275 -383 332 -73 24 -102 28 -224 31 -77 2 -144 2 -150 0z
m201 -153 c-13 -92 -30 -163 -39 -163 -4 0 -6 8 -3 18 3 9 10 49 16 87 12 79
19 105 27 105 3 0 2 -21 -1 -47z m-162 6 c9 -48 7 -187 -3 -169 -11 19 -21
200 -11 200 4 0 10 -14 14 -31z m56 -69 c0 -60 -4 -100 -10 -100 -6 0 -10 40
-10 100 0 60 4 100 10 100 6 0 10 -40 10 -100z m56 84 c-3 -9 -9 -54 -12 -100
-4 -46 -11 -84 -17 -84 -6 0 -7 31 -3 86 8 93 13 114 28 114 6 0 7 -7 4 -16z
m108 -11 c-3 -16 -15 -61 -25 -100 -11 -40 -19 -75 -19 -78 0 -4 -4 -4 -10 0
-6 3 -6 14 0 28 5 12 17 57 26 100 9 42 20 77 25 77 5 0 7 -12 3 -27z m-266
-60 c22 -143 10 -172 -14 -36 -16 91 -17 113 -6 113 5 0 14 -35 20 -77z m291
-32 c-17 -50 -35 -91 -39 -91 -4 0 8 44 27 97 18 54 33 100 34 103 0 3 3 0 5
-7 3 -6 -9 -52 -27 -102z m-340 21 c23 -86 26 -122 11 -122 -5 0 -10 9 -10 20
0 11 -9 53 -20 92 -23 82 -23 88 -11 88 5 0 18 -35 30 -78z m389 -30 c-24 -51
-46 -92 -49 -92 -4 0 12 45 35 99 22 55 44 96 49 92 4 -4 -12 -48 -35 -99z
m-434 4 c43 -139 33 -161 -14 -29 -15 43 -31 86 -35 96 -5 12 -3 17 8 17 10 0
23 -28 41 -84z m476 -26 c-29 -50 -55 -88 -57 -86 -3 3 18 46 47 96 29 50 54
89 57 86 3 -3 -18 -46 -47 -96z m-530 23 c13 -32 27 -62 32 -67 4 -6 8 -21 7
-35 0 -19 -13 0 -44 64 -39 81 -48 114 -26 100 5 -2 19 -31 31 -62z m616 20
c-8 -16 -28 -45 -45 -66 -16 -21 -33 -47 -36 -58 -6 -18 -25 -27 -25 -11 0 4
23 39 50 77 28 38 50 73 50 77 0 5 5 8 10 8 6 0 5 -11 -4 -27z m-640 -80 c21
-40 35 -76 31 -79 -9 -9 -4 -15 -59 83 -25 45 -43 84 -40 88 9 9 26 -14 68
-92z m756 40 c-28 -32 -67 -74 -87 -93 -21 -19 -47 -51 -60 -70 -42 -64 -207
-244 -237 -259 -16 -8 -38 -31 -49 -52 -50 -98 -160 -99 -159 -1 1 43 13 62
60 91 28 17 31 21 14 21 -25 0 -81 -51 -94 -86 -33 -86 42 -177 133 -160 34 6
89 50 119 96 l17 25 0 -30 c1 -34 -19 -61 -68 -95 -47 -32 -147 -35 -187 -4
-75 56 -91 138 -41 213 39 58 81 82 139 79 41 -1 55 4 110 42 92 64 195 149
202 165 8 21 119 155 129 155 5 0 -16 -30 -47 -67 -31 -37 -54 -69 -51 -71 2
-2 48 32 102 77 53 44 99 81 101 81 2 0 -19 -26 -46 -57z m-832 -10 c11 -21
34 -57 52 -80 17 -24 28 -46 24 -50 -4 -4 -11 -1 -16 7 -5 8 -31 43 -59 78
-47 58 -56 82 -31 82 5 0 19 -17 30 -37z m-17 -69 c32 -41 57 -79 55 -84 -4
-14 -128 127 -128 146 0 26 14 14 73 -62z m827 -8 c-30 -28 -71 -62 -90 -75
-19 -13 3 13 50 57 47 44 87 78 90 75 2 -2 -20 -28 -50 -57z m-861 -27 c35
-37 62 -72 60 -77 -2 -6 -37 21 -77 59 -40 38 -71 73 -67 79 10 16 16 11 84
-61z m-79 4 c88 -76 114 -102 108 -108 -4 -4 -17 3 -30 15 -13 12 -47 40 -75
62 -29 22 -50 44 -47 49 7 12 8 12 44 -18z m1045 -9 c-36 -28 -61 -36 -30 -10
17 14 35 25 40 25 6 0 1 -7 -10 -15z m-1036 -61 c42 -31 78 -58 80 -60 2 -2 2
-5 -1 -8 -8 -9 -178 106 -172 116 8 14 12 12 93 -48z m891 1 c-8 -8 -23 -20
-34 -25 -13 -6 -10 0 9 15 34 29 43 33 25 10z m-929 -37 c37 -23 75 -47 85
-53 11 -7 16 -15 12 -19 -3 -3 -23 4 -45 18 -21 13 -59 36 -85 51 -26 14 -50
31 -53 36 -13 21 23 8 86 -33z m1079 3 c-8 -5 -19 -10 -25 -10 -5 0 -3 5 5 10
8 5 20 10 25 10 6 0 3 -5 -5 -10z m-1077 -51 c42 -17 77 -36 77 -41 0 -5 -3
-8 -8 -6 -4 2 -41 16 -82 32 -41 16 -82 35 -90 44 -13 13 -13 14 5 9 11 -3 55
-20 98 -38z m932 31 c-3 -5 -12 -10 -18 -10 -7 0 -6 4 3 10 19 12 23 12 15 0z
m90 -3 c-48 -32 -95 -58 -95 -53 0 9 91 66 104 66 6 0 2 -6 -9 -13z m-984 -87
c11 0 19 -4 19 -10 0 -14 -3 -13 -104 19 -50 15 -92 33 -94 39 -2 6 34 -3 79
-19 45 -16 90 -29 100 -29z m1019 50 c-8 -5 -19 -10 -25 -10 -5 0 -3 5 5 10 8
5 20 10 25 10 6 0 3 -5 -5 -10z m-41 -14 c-10 -9 -69 -36 -69 -32 0 7 52 35
64 36 5 0 7 -2 5 -4z m-1056 -52 c137 -31 84 -35 -66 -6 -26 5 -51 12 -54 16
-11 11 47 6 120 -10z m1052 -3 c-15 -13 -62 -26 -50 -13 6 5 19 12 30 15 11 3
22 5 25 6 2 0 0 -3 -5 -8z m-1067 -34 c45 -7 83 -17 83 -22 1 -16 -196 10
-207 27 -7 11 25 10 124 -5z m1092 -6 c-26 -14 -70 -22 -70 -12 0 9 26 16 70
19 13 1 13 0 0 -7z m-1318 -38 c-3 -16 -7 -22 -10 -15 -4 13 4 42 11 42 2 0 2
-12 -1 -27z m246 -9 c34 -3 62 -11 62 -16 0 -7 -14 -8 -37 -4 -21 3 -71 6
-110 6 -60 0 -73 3 -73 16 0 13 8 15 48 10 26 -3 75 -8 110 -12z m1231 2 c-2
-2 -53 -6 -114 -9 -63 -3 -95 -2 -75 2 35 8 197 14 189 7z m-1189 -56 c-17
-11 -141 -11 -185 0 -19 5 11 8 85 9 78 0 110 -2 100 -9z m1003 3 c-7 -2 -19
-2 -25 0 -7 3 -2 5 12 5 14 0 19 -2 13 -5z m-999 -42 c-5 -5 -58 -12 -119 -15
-87 -6 -107 -4 -98 5 11 11 209 30 222 21 3 -1 0 -6 -5 -11z m6 -41 c0 -5 -19
-10 -42 -10 -24 -1 -73 -7 -110 -14 -38 -7 -68 -9 -68 -5 0 5 10 11 23 13 101
19 127 23 160 25 20 0 37 -3 37 -9z m1023 3 c-13 -2 -33 -2 -45 0 -13 2 -3 4
22 4 25 0 35 -2 23 -4z m75 -10 c-10 -2 -26 -2 -35 0 -10 3 -2 5 17 5 19 0 27
-2 18 -5z m75 -10 c-7 -2 -21 -2 -30 0 -10 3 -4 5 12 5 17 0 24 -2 18 -5z
m-1173 -23 c0 -5 -10 -10 -22 -10 -13 0 -54 -9 -93 -20 -76 -21 -105 -24 -105
-12 0 4 28 14 63 21 34 7 73 17 87 21 35 12 70 12 70 0z m1063 -7 c-7 -2 -19
-2 -25 0 -7 3 -2 5 12 5 14 0 19 -2 13 -5z m87 -13 c20 -6 21 -8 5 -8 -11 0
-31 4 -45 8 -20 6 -21 8 -5 8 11 0 31 -4 45 -8z m-1142 -12 c-2 -6 -15 -15
-29 -19 -141 -43 -171 -50 -181 -47 -7 3 35 21 93 40 119 42 122 42 117 26z
m12 -32 c0 -8 -22 -22 -52 -32 -29 -9 -77 -30 -106 -47 -44 -24 -53 -26 -50
-12 2 11 35 30 95 54 50 20 95 40 99 44 11 10 14 9 14 -7z m1135 -17 c5 -5 -6
-4 -25 2 -45 15 -54 24 -15 15 17 -4 34 -12 40 -17z m-1115 -17 c0 -5 -24 -19
-52 -33 -29 -13 -75 -36 -101 -51 -52 -30 -57 -32 -57 -20 0 9 46 36 140 83
60 30 70 33 70 21z m930 -37 c25 -18 64 -42 87 -55 24 -13 41 -26 38 -28 -7
-7 -195 108 -195 119 0 12 9 7 70 -36z m160 15 c8 -5 11 -10 5 -10 -5 0 -17 5
-25 10 -8 5 -10 10 -5 10 6 0 17 -5 25 -10z m-1085 -26 c-41 -32 -186 -106
-193 -99 -4 4 -2 9 3 12 6 2 51 26 100 53 89 49 129 64 90 34z m988 -91 c40
-33 27 -29 -29 10 -27 18 -66 42 -86 54 -21 12 -38 27 -38 32 0 10 103 -54
153 -96z m50 87 c20 -8 37 -18 37 -22 0 -5 -19 1 -42 13 -40 20 -66 37 -43 28
6 -2 27 -11 48 -19z m-1028 -36 c-42 -34 -116 -77 -122 -71 -6 7 140 106 147
100 3 -3 -8 -16 -25 -29z m874 -33 c37 -28 76 -60 86 -72 11 -13 -18 6 -65 41
-99 74 -107 80 -96 80 5 0 39 -22 75 -49z m-892 -47 c-43 -42 -80 -74 -83 -71
-8 7 133 147 148 147 7 0 -22 -35 -65 -76z m834 30 c20 -22 26 -32 14 -26 -25
13 -72 62 -59 62 6 0 26 -16 45 -36z m-818 -82 c-48 -48 -89 -86 -90 -84 -10
9 1 22 76 97 47 46 89 81 93 79 5 -3 -31 -45 -79 -92z m787 25 c0 -5 -11 5
-25 21 -14 17 -25 34 -25 38 1 11 50 -48 50 -59z m-756 -62 c-43 -47 -80 -85
-81 -85 -2 0 -3 4 -3 10 0 15 154 182 158 171 2 -6 -31 -49 -74 -96z m709 52
c15 -23 35 -53 44 -67 22 -33 6 -17 -45 46 -23 29 -42 55 -42 58 0 17 18 2 43
-37z m-893 29 c0 -2 -7 -6 -15 -10 -8 -3 -15 -1 -15 4 0 6 7 10 15 10 8 0 15
-2 15 -4z m290 -15 c0 -15 -138 -182 -144 -173 -4 7 131 182 141 182 2 0 3 -4
3 -9z m-252 -28 c-15 -15 -31 -23 -35 -19 -9 8 32 46 50 46 7 0 -1 -12 -15
-27z m801 5 c61 -98 67 -122 7 -33 -20 30 -33 55 -29 55 5 0 15 -10 22 -22z
m-521 -17 c-7 -10 -35 -51 -63 -91 -27 -39 -51 -67 -53 -62 -5 15 109 182 120
176 5 -3 4 -13 -4 -23z m777 -9 c-3 -3 -16 5 -28 17 l-22 23 28 -17 c15 -10
25 -20 22 -23z m-228 -148 c-5 -5 -87 159 -86 172 0 5 20 -31 45 -80 25 -48
43 -90 41 -92z m-507 153 c0 -17 -100 -180 -107 -173 -5 5 95 186 103 186 2 0
4 -6 4 -13z m0 -110 c-48 -93 -48 -92 -55 -85 -3 3 15 48 41 99 26 52 49 88
51 81 3 -7 -14 -50 -37 -95z m-310 89 c0 -3 -4 -8 -10 -11 -5 -3 -10 -1 -10 4
0 6 5 11 10 11 6 0 10 -2 10 -4z m362 -83 c-16 -43 -33 -87 -37 -98 -4 -11 -9
-15 -12 -8 -2 6 7 40 21 75 14 35 30 76 36 92 6 16 13 26 17 23 3 -4 -8 -41
-25 -84z m78 70 c0 -21 -69 -195 -70 -176 0 12 4 32 10 45 5 13 17 49 25 81 9
31 21 57 26 57 5 0 9 -3 9 -7z m179 -33 c0 -10 -3 -8 -9 5 -12 27 -12 43 0 25
5 -8 9 -22 9 -30z m101 5 c0 -5 -5 -3 -10 5 -5 8 -10 20 -10 25 0 6 5 3 10 -5
5 -8 10 -19 10 -25z m-254 -37 c-18 -50 -21 -31 -5 27 7 22 14 35 16 28 2 -6
-3 -31 -11 -55z m51 15 c-3 -10 -5 -2 -5 17 0 19 2 27 5 18 2 -10 2 -26 0 -35z
m403 -3 c6 -11 8 -20 6 -20 -3 0 -10 9 -16 20 -6 11 -8 20 -6 20 3 0 10 -9 16
-20z m-55 -20 c9 -16 13 -30 11 -30 -3 0 -12 14 -21 30 -9 17 -13 30 -11 30 3
0 12 -13 21 -30z m-428 -102 c-3 -8 -6 -5 -6 6 -1 11 2 17 5 13 3 -3 4 -12 1
-19z"/>
<path d="M2358 3130 c-12 -21 -25 -30 -43 -30 -23 0 -24 -2 -15 -20 8 -16 17
-19 33 -14 35 10 49 29 45 63 l-3 31 -17 -30z"/>
<path d="M3455 4030 c5 -21 4 -22 -5 -7 -10 15 -23 6 -121 -79 -60 -53 -109
-102 -109 -109 0 -6 13 -24 29 -39 23 -22 33 -26 47 -18 11 6 70 66 133 134
63 67 109 118 102 111 -14 -12 -57 0 -74 22 -5 5 -6 -1 -2 -15z m45 -20 c8 -5
11 -10 5 -10 -5 0 -17 5 -25 10 -8 5 -10 10 -5 10 6 0 17 -5 25 -10z"/>
<path d="M3568 3912 c-1 -4 -15 -16 -29 -27 -14 -11 -67 -55 -117 -99 l-92
-78 32 -44 c17 -24 34 -44 38 -44 3 0 57 52 120 115 l113 115 -26 28 c-15 16
-24 31 -20 35 3 4 1 7 -4 7 -6 0 -13 -3 -15 -8z"/>
<path d="M3776 3768 c3 -5 10 -6 15 -3 13 9 11 12 -6 12 -8 0 -12 -4 -9 -9z"/>
<path d="M3661 3743 c-6 -10 -11 -15 -11 -10 0 4 -42 -29 -92 -74 -51 -45
-100 -86 -109 -92 -14 -9 -13 -15 9 -61 14 -28 27 -53 29 -55 4 -6 217 204
243 240 13 18 16 29 8 40 -8 11 -9 11 -5 -3 3 -9 0 -22 -8 -28 -11 -9 -12 -7
-8 9 7 26 -5 27 -24 4 -13 -16 -13 -16 -3 5 9 18 8 22 -7 22 -15 0 -16 2 -3
10 9 6 10 10 3 10 -7 0 -17 -8 -22 -17z"/>
<path d="M3705 3750 c3 -5 8 -10 11 -10 2 0 4 5 4 10 0 6 -5 10 -11 10 -5 0
-7 -4 -4 -10z"/>
<path d="M3776 3602 c-4 -7 -1 -12 8 -12 9 0 16 -7 16 -16 0 -14 -1 -14 -16 0
-8 9 -19 16 -24 16 -5 0 -45 -34 -91 -76 -45 -41 -98 -87 -116 -102 -31 -23
-34 -29 -28 -60 3 -19 11 -46 16 -60 10 -25 12 -24 130 94 68 68 117 125 114
132 -3 7 0 10 5 7 6 -3 10 2 10 12 0 15 2 16 11 3 9 -13 10 -13 6 0 -2 8 2 22
9 30 9 11 10 20 3 30 -9 13 -10 12 -6 -2 9 -26 -4 -29 -23 -6 -11 15 -19 18
-24 10z"/>
<path d="M3854 3447 c-39 -34 -107 -94 -150 -132 -44 -39 -92 -80 -108 -92
-28 -22 -28 -24 -19 -80 l10 -58 182 184 c125 128 177 187 169 193 -12 7 -3
11 22 10 3 0 11 6 18 14 10 11 10 14 -2 14 -8 0 -17 -4 -21 -10 -3 -5 -12 -7
-20 -4 -8 4 -12 10 -9 15 10 17 -2 8 -72 -54z m71 -5 c-3 -3 -11 0 -18 7 -9
10 -8 11 6 5 10 -3 15 -9 12 -12z"/>
<path d="M3894 3269 c-32 -29 -97 -86 -144 -129 -47 -42 -103 -93 -126 -113
-37 -33 -42 -43 -47 -94 -3 -32 -8 -67 -12 -78 -9 -23 200 180 336 327 71 77
89 102 84 118 -10 30 -26 25 -91 -31z"/>
<path d="M3644 2828 c-90 -88 -106 -108 -122 -160 -11 -32 -17 -58 -15 -58 4
0 51 47 197 198 74 77 86 94 76 107 -7 8 -17 15 -23 15 -5 0 -56 -46 -113
-102z"/>
<path d="M1150 2620 c-12 -12 -18 -25 -15 -30 4 -6 -1 -10 -9 -10 -9 0 -16 -6
-16 -14 0 -7 -9 -16 -21 -19 -12 -3 -18 -10 -15 -15 3 -6 -1 -12 -9 -16 -8 -3
-15 -11 -14 -18 0 -10 2 -10 6 0 2 6 9 10 14 6 5 -3 9 -1 9 5 0 5 9 13 20 16
11 4 18 10 16 14 -7 10 7 29 23 33 22 5 57 42 53 56 -6 17 -19 15 -42 -8z"/>
<path d="M1196 2528 c-10 -13 -42 -47 -70 -76 -42 -44 -48 -54 -36 -63 11 -8
9 -9 -10 -3 -20 6 -23 4 -14 -7 14 -19 11 -45 -4 -41 -7 1 -15 -4 -18 -12 -3
-8 -12 -12 -20 -9 -8 3 -11 10 -7 16 4 6 1 7 -7 2 -10 -6 -9 -11 5 -22 17 -12
13 -18 -8 -14 -5 1 -6 -3 -2 -9 9 -15 20 -6 135 101 97 92 102 98 95 128 -8
37 -15 38 -39 9z"/>
<path d="M3522 2538 c-16 -16 -15 -45 3 -51 7 -3 24 2 37 12 19 16 20 21 9 35
-16 19 -33 20 -49 4z"/>
<path d="M1249 2419 c-134 -139 -253 -273 -251 -281 1 -5 -2 -7 -7 -4 -5 3
-14 -1 -21 -10 -10 -11 -10 -18 -2 -26 9 -9 21 -4 47 22 20 19 33 40 31 47 -3
6 0 10 7 8 7 -2 63 44 126 104 110 104 113 109 104 136 l-9 29 -25 -25z"/>
<path d="M3344 2365 c-8 -30 11 -56 34 -48 48 17 49 73 1 73 -22 0 -30 -6 -35
-25z"/>
<path d="M1305 2326 c-25 -28 -174 -185 -320 -336 -61 -63 -142 -151 -180
-195 -60 -68 -46 -57 95 75 215 203 450 432 450 440 0 3 -6 13 -12 22 -12 14
-15 14 -33 -6z"/>
<path d="M960 2266 c0 -2 8 -10 18 -17 15 -13 16 -12 3 4 -13 16 -21 21 -21
13z"/>
<path d="M1323 2201 c-129 -137 -253 -276 -253 -283 0 -14 20 -8 46 15 14 12
87 81 162 152 132 128 135 131 121 156 l-14 25 -62 -65z"/>
<path d="M900 2212 c-61 -65 -85 -95 -85 -107 0 -5 -5 -10 -12 -10 -6 0 -15
-4 -20 -9 -5 -5 -3 -6 5 -2 6 4 12 3 12 -2 0 -13 -35 -43 -42 -36 -3 3 -9 1
-12 -4 -3 -6 1 -9 9 -8 15 2 104 86 91 86 -4 0 -1 6 6 14 7 8 16 12 19 10 3
-2 28 20 54 48 26 28 40 48 30 44 -13 -4 -16 -2 -11 9 8 22 6 20 -44 -33z m24
-7 c-9 -14 -21 -22 -27 -18 -6 4 -1 13 12 25 31 24 35 23 15 -7z m-40 -40 c-4
-8 -8 -15 -10 -15 -2 0 -4 7 -4 15 0 8 4 15 10 15 5 0 7 -7 4 -15z"/>
<path d="M3503 2227 c4 -10 7 -23 7 -28 0 -5 7 -9 16 -9 8 0 12 -4 9 -10 -7
-12 11 -12 40 -1 17 7 16 9 -10 15 -16 4 -38 17 -48 29 -17 18 -19 19 -14 4z"/>
<path d="M1353 2073 c-56 -60 -131 -139 -168 -178 -37 -38 -81 -88 -98 -110
l-32 -40 55 45 c30 25 95 83 145 130 50 47 124 115 164 151 68 62 72 67 60 88
-8 11 -16 21 -20 21 -3 0 -51 -48 -106 -107z"/>
<path d="M638 2136 c-15 -33 -4 -56 26 -56 19 0 27 7 32 25 12 49 -37 75 -58
31z"/>
<path d="M1529 2102 c-2 -6 -44 -52 -92 -104 -154 -162 -159 -168 -146 -168 9
0 10 -3 4 -8 -5 -4 -11 -14 -13 -22 -2 -8 27 14 65 50 37 36 94 88 126 114 32
27 67 62 79 79 l21 29 -20 20 c-12 11 -22 15 -24 10z"/>
<path d="M923 2055 c0 -8 4 -12 9 -9 5 3 6 10 3 15 -9 13 -12 11 -12 -6z"/>
<path d="M888 2025 c-10 -13 -18 -27 -18 -32 0 -4 7 3 16 15 8 12 20 20 25 17
5 -3 6 1 3 9 -7 20 -5 20 -26 -9z"/>
<path d="M1540 1940 c-51 -55 -99 -109 -107 -120 -13 -18 -12 -19 4 -13 10 4
23 12 29 17 6 6 32 29 59 51 87 71 135 117 135 130 0 7 -6 18 -14 24 -11 9
-32 -9 -106 -89z"/>
<path d="M1830 1466 c0 -160 6 -176 61 -176 34 0 40 24 9 40 -18 10 -20 21
-20 145 l0 135 -25 0 -25 0 0 -144z"/>
<path d="M1960 1450 l0 -160 30 0 c21 0 30 5 30 17 0 15 1 15 18 0 27 -25 76
-21 109 7 25 22 28 30 28 91 0 61 -3 69 -28 91 -33 28 -82 32 -109 7 -17 -15
-18 -14 -18 45 l0 62 -30 0 -30 0 0 -160z m144 14 c10 -9 16 -33 16 -59 0 -67
-41 -96 -82 -58 -27 24 -25 97 4 117 28 20 43 20 62 0z"/>
<path d="M2234 1595 c-7 -17 12 -45 31 -45 19 0 36 25 29 44 -8 20 -53 21 -60
1z"/>
<path d="M2914 1596 c-10 -26 4 -48 28 -44 17 2 23 10 23 28 0 18 -6 26 -23
28 -13 2 -25 -3 -28 -12z"/>
<path d="M3970 1450 l0 -160 25 0 c24 0 25 2 25 64 0 36 4 76 9 89 12 30 43
42 71 27 18 -9 20 -20 20 -95 0 -84 0 -85 25 -85 25 0 25 0 25 95 0 82 -3 98
-20 115 -24 24 -68 26 -96 5 -31 -23 -34 -19 -34 45 0 57 -1 60 -25 60 l-25 0
0 -160z"/>
<path d="M833 1440 l-52 -150 29 0 c24 0 30 6 40 35 l12 36 61 -3 c60 -3 62
-4 71 -35 7 -27 14 -33 37 -33 16 0 29 4 29 8 0 5 -22 71 -49 148 l-49 139
-38 3 -39 3 -52 -151z m115 30 l21 -60 -45 0 c-24 0 -44 2 -44 4 0 3 20 62 35
104 8 21 13 14 33 -48z"/>
<path d="M2670 1440 l0 -150 30 0 30 0 0 65 0 65 60 0 c53 0 60 2 60 20 0 18
-7 20 -60 20 l-60 0 0 45 0 45 65 0 c58 0 65 2 65 20 0 19 -7 20 -95 20 l-95
0 0 -150z"/>
<path d="M3323 1563 c-7 -2 -13 -13 -13 -24 0 -10 -7 -19 -15 -19 -8 0 -15 -9
-15 -20 0 -11 6 -20 14 -20 10 0 15 -19 18 -74 4 -90 22 -116 79 -116 21 0 40
4 43 9 10 15 -5 42 -23 40 -39 -4 -41 0 -41 71 l0 70 30 0 c23 0 30 4 30 20 0
16 -7 20 -30 20 -25 0 -30 4 -30 25 0 25 -16 31 -47 18z"/>
<path d="M1137 1500 c-57 -45 -57 -145 0 -189 49 -40 153 -17 153 33 0 23 -29
27 -50 6 -24 -24 -38 -25 -68 -4 -17 12 -22 25 -22 59 0 37 4 47 26 62 25 16
28 16 57 -1 28 -16 32 -16 46 -1 15 15 14 18 -8 36 -32 26 -100 26 -134 -1z"/>
<path d="M1383 1508 c-25 -12 -53 -65 -53 -101 0 -71 44 -117 113 -117 36 0
87 32 87 55 0 23 -32 27 -52 5 -40 -42 -88 -11 -88 57 0 64 41 90 89 57 20
-15 24 -15 38 -1 14 13 13 17 -6 36 -23 23 -89 28 -128 9z"/>
<path d="M1619 1505 c-35 -19 -53 -65 -46 -121 6 -57 31 -84 85 -91 68 -9 131
28 97 57 -11 9 -19 8 -37 -4 -30 -21 -54 -20 -78 4 -33 33 -24 40 54 40 51 0
76 4 79 13 7 23 -12 82 -34 100 -26 20 -84 22 -120 2z m95 -47 c15 -24 5 -30
-48 -26 -46 3 -47 3 -30 26 19 27 61 27 78 0z"/>
<path d="M2240 1405 l0 -115 25 0 25 0 0 115 0 115 -25 0 -25 0 0 -115z"/>
<path d="M2340 1500 c0 -18 7 -20 55 -20 30 0 55 -3 55 -6 0 -3 -25 -35 -55
-70 -34 -40 -55 -74 -55 -90 0 -24 1 -24 90 -24 83 0 90 1 90 20 0 18 -7 20
-55 20 -33 0 -55 4 -55 11 0 6 23 36 50 68 33 38 50 67 50 84 l0 27 -85 0
c-78 0 -85 -2 -85 -20z"/>
<path d="M2910 1405 l0 -115 30 0 30 0 0 115 0 115 -30 0 -30 0 0 -115z"/>
<path d="M3040 1405 l0 -115 25 0 c25 0 25 1 25 80 0 75 2 81 26 97 45 29 59
10 62 -91 l3 -86 30 0 31 0 -4 94 c-2 75 -7 98 -22 115 -23 25 -72 28 -104 5
-20 -14 -22 -14 -22 0 0 10 -9 16 -25 16 l-25 0 0 -115z"/>
<path d="M3519 1505 c-64 -35 -63 -167 2 -200 55 -29 149 -10 149 29 0 22 -30
27 -53 11 -29 -20 -50 -19 -70 3 -30 33 -20 41 56 44 l72 3 -1 39 c-3 73 -84
110 -155 71z m101 -44 c15 -30 14 -31 -40 -31 -34 0 -50 4 -50 13 0 38 71 52
90 18z"/>
<path d="M3773 1509 c-26 -14 -53 -66 -53 -104 0 -40 27 -91 56 -104 38 -17
89 -13 118 10 30 23 34 44 9 53 -10 4 -23 -1 -35 -14 -40 -42 -88 -11 -88 57
0 64 41 90 89 57 20 -14 25 -14 37 -2 37 37 -75 76 -133 47z"/>
<path d="M1480 1067 c0 -18 -5 -22 -32 -22 -26 0 -35 -6 -47 -29 -19 -39 -4
-61 42 -62 39 -2 40 -1 52 66 4 19 9 43 11 53 4 11 0 17 -10 17 -10 0 -16 -9
-16 -23z m-15 -47 c9 -14 -13 -50 -30 -50 -16 0 -19 18 -9 44 7 18 30 21 39 6z"/>
<path d="M2317 1053 c-4 -21 -9 -52 -13 -69 -6 -30 -5 -31 34 -32 48 -2 65 14
60 60 -3 29 -7 33 -30 33 -24 -1 -27 2 -22 22 4 16 2 23 -9 23 -9 0 -17 -14
-20 -37z m59 -38 c6 -16 -12 -45 -28 -45 -15 0 -21 30 -8 45 16 19 29 19 36 0z"/>
<path d="M2652 1079 c2 -6 8 -10 13 -10 5 0 11 4 13 10 2 6 -4 11 -13 11 -9 0
-15 -5 -13 -11z"/>
<path d="M3312 1079 c2 -6 8 -10 13 -10 5 0 11 4 13 10 2 6 -4 11 -13 11 -9 0
-15 -5 -13 -11z"/>
<path d="M3445 1078 c-7 -20 -24 -102 -25 -115 0 -29 20 -10 30 27 7 25 17 40
27 40 13 0 15 -8 10 -40 -7 -55 19 -55 28 0 8 48 0 63 -31 57 -21 -4 -23 -1
-18 19 6 25 -13 35 -21 12z"/>
<path d="M4032 1039 c-17 -72 -16 -89 8 -89 11 0 20 5 20 10 0 6 -4 10 -9 10
-8 0 0 52 15 103 3 10 0 17 -9 17 -8 0 -18 -20 -25 -51z"/>
<path d="M961 1066 c-17 -21 -7 -44 24 -56 14 -5 25 -14 25 -20 0 -17 -29 -23
-45 -10 -18 15 -30 7 -22 -15 8 -20 61 -20 82 1 22 22 15 46 -18 62 -36 17
-35 34 3 30 16 -1 31 2 32 7 5 17 -67 18 -81 1z"/>
<path d="M3363 1058 c-5 -7 -9 -33 -9 -58 1 -39 4 -45 24 -48 12 -2 22 1 22 7
0 6 -4 11 -10 11 -5 0 -10 13 -10 29 0 21 6 31 23 36 19 6 19 8 5 12 -10 2
-18 9 -18 14 0 13 -16 11 -27 -3z"/>
<path d="M1066 1031 c-3 -9 -7 -32 -11 -51 -4 -19 -9 -43 -11 -52 -4 -12 0
-18 10 -18 9 0 16 9 16 20 0 16 7 20 30 20 37 0 65 38 56 75 -6 22 -11 25 -46
23 -27 -1 -41 -6 -44 -17z m64 -26 c0 -28 -25 -44 -42 -27 -7 7 -6 17 1 31 16
30 41 27 41 -4z"/>
<path d="M1193 1038 c-33 -42 -19 -91 24 -86 15 2 28 9 31 16 3 9 -3 11 -22 6
-16 -4 -26 -2 -26 5 0 6 11 11 24 11 28 0 51 24 42 45 -7 18 -60 20 -73 3z
m47 -18 c0 -5 -9 -10 -21 -10 -11 0 -17 5 -14 10 3 6 13 10 21 10 8 0 14 -4
14 -10z"/>
<path d="M1303 1038 c-33 -42 -19 -91 24 -86 15 2 28 9 31 16 3 9 -3 11 -22 6
-16 -4 -26 -2 -26 5 0 6 11 11 24 11 28 0 51 24 42 45 -7 18 -60 20 -73 3z
m47 -18 c0 -5 -9 -10 -21 -10 -11 0 -17 5 -14 10 3 6 13 10 21 10 8 0 14 -4
14 -10z"/>
<path d="M1565 1010 c-8 -50 -2 -60 40 -58 36 1 38 3 50 67 6 26 4 32 -6 29
-8 -3 -16 -15 -17 -29 -4 -27 -20 -49 -35 -49 -6 0 -7 16 -4 40 7 55 -19 55
-28 0z"/>
<path d="M1686 1031 c-3 -9 -7 -32 -11 -51 -4 -19 -9 -43 -11 -52 -4 -12 0
-18 10 -18 9 0 16 9 16 20 0 16 7 20 30 20 37 0 65 38 56 75 -6 22 -11 25 -46
23 -27 -1 -41 -6 -44 -17z m64 -26 c0 -28 -25 -44 -42 -27 -7 7 -6 17 1 31 16
30 41 27 41 -4z"/>
<path d="M1851 1008 c12 -64 11 -68 -18 -80 -27 -11 -28 -12 -5 -16 13 -2 29
2 37 8 13 11 75 114 75 125 0 15 -21 1 -36 -24 -20 -34 -34 -32 -34 5 0 14 -6
24 -14 24 -10 0 -12 -9 -5 -42z"/>
<path d="M1965 1034 c-10 -10 -15 -29 -13 -48 3 -28 6 -31 38 -31 28 0 37 5
48 27 25 53 -31 93 -73 52z m55 -18 c0 -25 -12 -46 -26 -46 -20 0 -29 27 -14
45 16 19 40 19 40 1z"/>
<path d="M2075 1028 c-14 -68 -10 -77 34 -76 38 0 39 1 48 49 8 38 7 49 -2 49
-7 0 -17 -17 -22 -37 -5 -24 -15 -39 -27 -41 -16 -3 -17 1 -11 37 7 44 -10 60
-20 19z"/>
<path d="M2184 999 c-8 -38 -8 -49 2 -49 7 0 15 13 19 30 4 16 18 38 33 49
l26 19 -35 0 c-34 0 -36 -1 -45 -49z"/>
<path d="M2426 1009 c-8 -52 -2 -60 42 -56 38 2 49 19 51 75 2 36 -17 25 -29
-18 -7 -25 -17 -40 -27 -40 -13 0 -14 7 -9 40 5 30 3 40 -8 40 -8 0 -16 -16
-20 -41z"/>
<path d="M2550 1035 c-10 -12 -10 -18 0 -30 7 -8 19 -15 26 -15 8 0 14 -5 14
-11 0 -6 -11 -9 -25 -7 -13 2 -24 -1 -25 -7 0 -5 15 -10 33 -10 26 0 33 4 35
23 3 17 -2 25 -17 29 -29 8 -26 23 5 23 14 0 23 4 19 10 -9 15 -51 12 -65 -5z"/>
<path d="M2647 1043 c-12 -20 -18 -93 -8 -93 9 0 31 60 31 88 0 13 -16 17 -23
5z"/>
<path d="M2696 1014 c-4 -19 -10 -42 -13 -50 -3 -8 1 -14 9 -14 8 0 18 16 24
37 6 24 16 39 28 41 16 3 17 -1 11 -37 -9 -52 10 -56 24 -5 14 50 6 64 -39 64
-35 0 -38 -2 -44 -36z"/>
<path d="M2823 1038 c-33 -42 -19 -91 24 -86 15 2 28 9 31 16 3 9 -3 11 -22 6
-16 -4 -26 -2 -26 5 0 6 11 11 24 11 28 0 51 24 42 45 -7 18 -60 20 -73 3z
m47 -18 c0 -5 -9 -10 -21 -10 -11 0 -17 5 -14 10 3 6 13 10 21 10 8 0 14 -4
14 -10z"/>
<path d="M2927 1043 c-14 -13 -6 -42 13 -48 28 -9 25 -27 -5 -23 -13 2 -24 -1
-25 -7 0 -5 15 -10 32 -10 42 0 51 30 17 56 l-24 19 28 0 c15 0 27 5 27 10 0
11 -53 14 -63 3z"/>
<path d="M3017 1043 c-14 -13 -6 -42 13 -48 30 -10 25 -28 -6 -21 -19 5 -25 3
-22 -6 6 -18 46 -22 64 -8 22 19 17 39 -13 52 l-28 12 28 4 c15 2 27 8 27 13
0 10 -53 13 -63 2z"/>
<path d="M3150 1000 c0 -59 20 -68 41 -17 l14 32 5 -29 c3 -16 10 -31 17 -33
11 -4 53 64 53 87 0 21 -17 9 -33 -22 l-16 -33 0 33 c-1 19 -6 32 -14 32 -7 0
-21 -15 -30 -32 l-16 -33 0 33 c-1 53 -21 36 -21 -18z"/>
<path d="M3294 1000 c-8 -39 -8 -50 2 -50 7 0 15 15 19 33 4 17 9 40 11 50 3
10 0 17 -8 17 -9 0 -18 -19 -24 -50z"/>
<path d="M3602 1037 c-18 -23 -24 -58 -12 -72 7 -8 27 -14 46 -13 35 1 37 4
49 64 6 30 5 31 -33 32 -22 1 -44 -4 -50 -11z m53 -17 c9 -14 -13 -50 -30 -50
-16 0 -19 18 -9 44 7 18 30 21 39 6z"/>
<path d="M3723 1038 c-19 -24 -25 -58 -13 -73 16 -19 54 -19 69 -2 15 19 3 28
-20 14 -24 -15 -33 -4 -25 28 5 19 12 25 29 23 12 -2 24 2 27 7 8 15 -55 18
-67 3z"/>
<path d="M3826 1034 c-26 -25 -18 -78 12 -82 26 -4 55 15 46 30 -3 5 -12 4
-20 -3 -12 -9 -18 -9 -27 0 -18 18 5 46 38 44 17 -1 25 2 22 10 -6 19 -53 20
-71 1z"/>
<path d="M3926 1028 c-20 -28 -20 -52 -2 -68 18 -14 58 -10 64 8 3 9 -3 11
-22 6 -16 -4 -26 -2 -26 5 0 6 9 11 19 11 30 0 55 29 40 46 -17 21 -56 17 -73
-8z m54 -8 c0 -5 -9 -10 -21 -10 -11 0 -17 5 -14 10 3 6 13 10 21 10 8 0 14
-4 14 -10z"/>
</g>
</svg>
